<svg width="586" height="542" xmlns="http://www.w3.org/2000/svg" xmlns:xlink="http://www.w3.org/1999/xlink" xml:space="preserve" overflow="hidden"><g><path d="M304.166 203.29 346.518 203.29 346.518 83.9343 381.17 83.9343" stroke="#000000" stroke-width="0.770039" stroke-miterlimit="10" fill="none" transform="matrix(1 0 0 1.00122 0.38502 0.385491)"/><path d="M381.17 87.0145 381.17 80.8541" stroke="#000000" stroke-width="0.770039" stroke-miterlimit="10" fill="none" transform="matrix(1 0 0 1.00122 0.38502 0.385491)"/><path d="M304.166 203.29 346.518 203.29 346.518 23.1012 381.17 23.1012" stroke="#000000" stroke-width="0.770039" stroke-miterlimit="10" fill="none" transform="matrix(1 0 0 1.00122 0.38502 0.385491)"/><path d="M381.17 26.1813 381.17 20.021" stroke="#000000" stroke-width="0.770039" stroke-miterlimit="10" fill="none" transform="matrix(1 0 0 1.00122 0.38502 0.385491)"/><path d="M299.545 187.89C302.097 187.89 304.166 189.958 304.166 192.51L304.166 214.071C304.166 216.623 302.097 218.691 299.545 218.691L220.231 218.691C217.68 218.691 215.611 216.623 215.611 214.071L215.611 192.51C215.611 189.958 217.68 187.89 220.231 187.89Z" stroke="#36393D" stroke-width="0.770039" fill="#F9F7ED" transform="matrix(1 0 0 1.00122 0.38502 0.385491)"/><text font-family="Cairo,Cairo_MSFontService,sans-serif" font-weight="700" font-size="11" direction="rtl" writing-mode="rl-tb" transform="matrix(0.770039 0 0 0.770981 247.568 206)" x="42.8549">الادوية</text><path d="M289.92 18.4809C292.472 18.4809 294.54 20.5495 294.54 23.1012L294.54 44.6623C294.54 47.214 292.472 49.2825 289.92 49.2825L229.857 49.2825C227.305 49.2825 225.237 47.214 225.237 44.6623L225.237 23.1012C225.237 20.5495 227.305 18.4809 229.857 18.4809Z" stroke="#36393D" stroke-width="0.770039" fill="#F9F7ED" transform="matrix(1 0 0 1.00122 0.38502 0.385491)"/><text font-family="Cairo,Cairo_MSFontService,sans-serif" font-weight="700" font-size="11" direction="rtl" writing-mode="rl-tb" transform="matrix(0.770039 0 0 0.770981 244.873 36)" x="51.9454">الشركات</text><path d="M194.627 401.576C197.179 401.576 199.248 403.644 199.248 406.196L199.248 427.757C199.248 430.309 197.179 432.377 194.627 432.377L119.164 432.377C116.612 432.377 114.543 430.309 114.543 427.757L114.543 406.196C114.543 403.644 116.612 401.576 119.164 401.576Z" stroke="#36393D" stroke-width="0.770039" fill="#F9F7ED" transform="matrix(1 0 0 1.00122 0.38502 0.385491)"/><text font-family="Cairo,Cairo_MSFontService,sans-serif" font-weight="700" font-size="11" direction="rtl" writing-mode="rl-tb" transform="matrix(0.770039 0 0 0.770981 138.607 420)" x="62.3345">الصيدليات</text><path d="M21.1761 403.501 29.2076 395.469C32.837 391.84 36.4665 391.84 40.096 395.469L56.159 411.532C59.7884 415.161 59.7884 418.791 56.159 422.421L40.096 438.484C36.4665 442.113 32.837 442.113 29.2076 438.484L13.1446 422.421C9.51515 418.791 9.51515 415.161 13.1446 411.532Z" stroke="#6C8EBF" stroke-width="0.770039" stroke-miterlimit="10" fill="#DAE8FC" transform="matrix(1 0 0 1.00122 0.38502 0.385491)"/><text font-family="Cairo,Cairo_MSFontService,sans-serif" font-weight="700" font-size="11" direction="rtl" writing-mode="rl-tb" transform="matrix(0.770039 0 0 0.770981 25.0263 420)" x="32.4659">لديها</text><path d="M259.888 95.4849 259.888 49.2825" stroke="#000000" stroke-width="0.770039" stroke-miterlimit="10" fill="none" transform="matrix(1 0 0 1.00122 0.38502 0.385491)"/><path d="M262.968 49.2825 256.808 49.2825" stroke="#000000" stroke-width="0.770039" stroke-miterlimit="10" fill="none" transform="matrix(1 0 0 1.00122 0.38502 0.385491)"/><path d="M259.888 141.687 259.888 187.89" stroke="#000000" stroke-width="0.770039" stroke-miterlimit="10" fill="none" transform="matrix(1 0 0 1.00122 0.38502 0.385491)"/><path d="M256.808 187.89 262.968 187.89" stroke="#000000" stroke-width="0.770039" stroke-miterlimit="10" fill="none" transform="matrix(1 0 0 1.00122 0.38502 0.385491)"/><path d="M248.338 107.035 254.444 100.929C258.073 97.2999 261.703 97.2999 265.332 100.929L277.545 113.142C281.175 116.771 281.175 120.401 277.545 124.03L265.332 136.243C261.703 139.872 258.073 139.872 254.444 136.243L242.231 124.03C238.602 120.401 238.602 116.771 242.231 113.142Z" stroke="#6C8EBF" stroke-width="0.770039" stroke-miterlimit="10" fill="#DAE8FC" transform="matrix(1 0 0 1.00122 0.38502 0.385491)"/><text font-family="Cairo,Cairo_MSFontService,sans-serif" font-weight="700" font-size="11" direction="rtl" writing-mode="rl-tb" transform="matrix(0.770039 0 0 0.770981 250.648 121)" x="32.4659">تصنع</text><path d="M392.72 72.3837 398.827 66.2773C402.456 62.6479 406.086 62.6479 409.715 66.2773L421.928 78.4901C425.557 82.1193 425.557 85.7493 421.928 89.3785L409.715 101.591C406.086 105.221 402.456 105.221 398.827 101.591L386.614 89.3785C382.984 85.7493 382.984 82.1193 386.614 78.4901Z" stroke="#6C8EBF" stroke-width="0.770039" stroke-miterlimit="10" fill="#DAE8FC" transform="matrix(1 0 0 1.00122 0.38502 0.385491)"/><text font-family="Cairo,Cairo_MSFontService,sans-serif" font-weight="700" font-size="11" direction="rtl" writing-mode="rl-tb" transform="matrix(0.770039 0 0 0.770981 396.57 86)" x="25.9727">يتبع</text><path d="M143.905 286.07 151.551 278.138C155.114 274.442 158.677 274.442 162.24 278.138L177.54 294.001C181.103 297.697 181.103 301.393 177.54 305.09L162.24 320.952C158.677 324.649 155.114 324.649 151.551 320.952L136.251 305.09C132.688 301.393 132.688 297.697 136.251 294.001Z" stroke="#6C8EBF" stroke-width="0.770039" stroke-miterlimit="10" fill="#DAE8FC" transform="matrix(1 0 0 1.00122 0.38502 0.385491)"/><text font-family="Cairo,Cairo_MSFontService,sans-serif" font-weight="700" font-size="11" direction="rtl" writing-mode="rl-tb" transform="matrix(0.770039 0 0 0.770981 146.307 302)" x="36.3618">يعرض</text><path d="M346.518 386.175C349.707 386.175 352.293 388.76 352.293 391.95L352.293 418.901C352.293 422.091 349.707 424.677 346.518 424.677L309.941 424.677C306.751 424.677 304.166 422.091 304.166 418.901L304.166 391.95C304.166 388.76 306.751 386.175 309.941 386.175Z" stroke="#666666" stroke-width="0.770039" fill="#F5F5F5" transform="matrix(1 0 0 1.00122 0.38502 0.385491)"/><path d="M316.201 395.8 322.215 390.988C326.225 387.779 330.234 387.779 334.243 390.988L346.279 400.613C350.289 403.822 350.289 407.03 346.279 410.239L334.243 419.864C330.234 423.073 326.225 423.073 322.215 419.864L310.18 410.239C306.17 407.03 306.17 403.822 310.18 400.613Z" stroke="#666666" stroke-width="0.770039" stroke-miterlimit="10" fill="none" transform="matrix(1 0 0 1.00122 0.38502 0.385491)"/><text fill="#333333" font-family="Cairo,Cairo_MSFontService,sans-serif" font-weight="700" font-size="11" direction="rtl" writing-mode="rl-tb" transform="matrix(0.770039 0 0 0.770981 323.032 409)" x="16.8823">يرد</text><path d="M569.637 355.373C571.869 355.373 573.679 357.183 573.679 359.416L573.679 378.282C573.679 380.515 571.869 382.325 569.637 382.325L508.419 382.325C506.186 382.325 504.376 380.515 504.376 378.282L504.376 359.416C504.376 357.183 506.186 355.373 508.419 355.373Z" stroke="#36393D" stroke-width="0.770039" fill="#F9F7ED" transform="matrix(1 0 0 1.00122 0.38502 0.385491)"/><text font-family="Cairo,Cairo_MSFontService,sans-serif" font-weight="700" font-size="11" direction="rtl" writing-mode="rl-tb" transform="matrix(0.770039 0 0 0.770981 520.162 372)" x="63.6331">المستخدم</text><path d="M563.284 218.691C565.836 218.691 567.904 220.76 567.904 223.311L567.904 244.873C567.904 247.424 565.836 249.493 563.284 249.493L514.771 249.493C512.22 249.493 510.151 247.424 510.151 244.873L510.151 223.311C510.151 220.76 512.22 218.691 514.771 218.691Z" stroke="#36393D" stroke-width="0.770039" fill="#F9F7ED" transform="matrix(1 0 0 1.00122 0.38502 0.385491)"/><text font-family="Cairo,Cairo_MSFontService,sans-serif" font-weight="700" font-size="11" direction="rtl" writing-mode="rl-tb" transform="matrix(0.770039 0 0 0.770981 522.087 237)" x="57.1399">منبه دواء</text><path d="M527.477 291.845 533.583 285.739C537.213 282.109 540.843 282.109 544.472 285.739L556.685 297.951C560.314 301.581 560.314 305.211 556.685 308.84L544.472 321.053C540.843 324.682 537.213 324.682 533.583 321.053L521.371 308.84C517.741 305.211 517.741 301.581 521.371 297.951Z" stroke="#6C8EBF" stroke-width="0.770039" stroke-miterlimit="10" fill="#DAE8FC" transform="matrix(1 0 0 1.00122 0.38502 0.385491)"/><text font-family="Cairo,Cairo_MSFontService,sans-serif" font-weight="700" font-size="11" direction="rtl" writing-mode="rl-tb" transform="matrix(0.770039 0 0 0.770981 531.327 306)" x="25.9727">لديه</text><path d="M557.509 68.5335C560.06 68.5335 562.129 70.6021 562.129 73.1537L562.129 94.7149C562.129 97.2665 560.06 99.3351 557.509 99.3351L474.344 99.3351C471.793 99.3351 469.724 97.2665 469.724 94.7149L469.724 73.1537C469.724 70.6021 471.793 68.5335 474.344 68.5335Z" stroke="#36393D" stroke-width="0.770039" fill="#F9F7ED" transform="matrix(1 0 0 1.00122 0.38502 0.385491)"/><path d="M554.813 72.3837C556.727 72.3837 558.279 73.9351 558.279 75.8489L558.279 92.0197C558.279 93.9335 556.727 95.4849 554.813 95.4849L477.039 95.4849C475.126 95.4849 473.574 93.9335 473.574 92.0197L473.574 75.8489C473.574 73.9351 475.126 72.3837 477.039 72.3837Z" stroke="#36393D" stroke-width="0.770039" fill="#F9F7ED" transform="matrix(1 0 0 1.00122 0.38502 0.385491)"/><text font-family="Cairo,Cairo_MSFontService,sans-serif" font-weight="700" font-size="11" direction="rtl" writing-mode="rl-tb" transform="matrix(0.770039 0 0 0.770981 485.895 86)" x="101.294">الاسماء العلمية</text><path d="M427.372 23.1012 469.724 23.1012" stroke="#000000" stroke-width="0.770039" stroke-miterlimit="10" fill="none" transform="matrix(1 0 0 1.00122 0.38502 0.385491)"/><path d="M469.724 26.1813 469.724 20.021" stroke="#000000" stroke-width="0.770039" stroke-miterlimit="10" fill="none" transform="matrix(1 0 0 1.00122 0.38502 0.385491)"/><path d="M392.72 11.5506 398.827 5.44418C402.456 1.81473 406.086 1.81473 409.715 5.44418L421.928 17.657C425.557 21.2864 425.557 24.9159 421.928 28.5454L409.715 40.7582C406.086 44.3876 402.456 44.3876 398.827 40.7582L386.614 28.5454C382.984 24.9159 382.984 21.2864 386.614 17.657Z" stroke="#6C8EBF" stroke-width="0.770039" stroke-miterlimit="10" fill="#DAE8FC" transform="matrix(1 0 0 1.00122 0.38502 0.385491)"/><text font-family="Cairo,Cairo_MSFontService,sans-serif" font-weight="700" font-size="11" direction="rtl" writing-mode="rl-tb" transform="matrix(0.770039 0 0 0.770981 396.57 25)" x="25.9727">يتبع</text><path d="M557.509 7.70039C560.06 7.70039 562.129 9.76894 562.129 12.3206L562.129 33.8817C562.129 36.4334 560.06 38.502 557.509 38.502L474.344 38.502C471.793 38.502 469.724 36.4334 469.724 33.8817L469.724 12.3206C469.724 9.76894 471.793 7.70039 474.344 7.70039Z" stroke="#36393D" stroke-width="0.770039" fill="#F9F7ED" transform="matrix(1 0 0 1.00122 0.38502 0.385491)"/><text font-family="Cairo,Cairo_MSFontService,sans-serif" font-weight="700" font-size="11" direction="rtl" writing-mode="rl-tb" transform="matrix(0.770039 0 0 0.770981 480.12 25)" x="120.773">المجموعات الدوائية</text><text font-family="Arial,Arial_MSFontService,sans-serif" font-weight="400" font-size="12" transform="matrix(0.770039 0 0 0.770981 269.129 76)">1</text><text font-family="Arial,Arial_MSFontService,sans-serif" font-weight="400" font-size="12" transform="matrix(0.770039 0 0 0.770981 273.749 153)">N</text><text font-family="Arial,Arial_MSFontService,sans-serif" font-weight="400" font-size="12" transform="matrix(0.770039 0 0 0.770981 132.062 334)">1</text><text font-family="Arial,Arial_MSFontService,sans-serif" font-weight="400" font-size="12" transform="matrix(0.770039 0 0 0.770981 366.154 15)">N</text><text font-family="Arial,Arial_MSFontService,sans-serif" font-weight="400" font-size="12" transform="matrix(0.770039 0 0 0.770981 366.154 76)">N</text><text font-family="Arial,Arial_MSFontService,sans-serif" font-weight="400" font-size="12" transform="matrix(0.770039 0 0 0.770981 436.227 68)">1</text><text font-family="Arial,Arial_MSFontService,sans-serif" font-weight="400" font-size="12" transform="matrix(0.770039 0 0 0.770981 436.227 15)">1</text><text font-family="Arial,Arial_MSFontService,sans-serif" font-weight="400" font-size="12" transform="matrix(0.770039 0 0 0.770981 142.842 230)">M</text><text font-family="Arial,Arial_MSFontService,sans-serif" font-weight="400" font-size="12" transform="matrix(0.770039 0 0 0.770981 74.3088 406)">1</text><text font-family="Arial,Arial_MSFontService,sans-serif" font-weight="400" font-size="12" transform="matrix(0.770039 0 0 0.770981 50.4376 342)">N</text><text font-family="Arial,Arial_MSFontService,sans-serif" font-weight="400" font-size="12" transform="matrix(0.770039 0 0 0.770981 373.854 288)">N</text><path d="M64.6833 280.294C67.235 280.294 69.3036 282.363 69.3036 284.915L69.3036 306.476C69.3036 309.027 67.235 311.096 64.6833 311.096L4.62024 311.096C2.06855 311.096 -6.83932e-16 309.027 0 306.476L0 284.915C-1.36786e-15 282.363 2.06855 280.294 4.62024 280.294Z" stroke="#36393D" stroke-width="0.770039" fill="#F9F7ED" transform="matrix(1 0 0 1.00122 0.38502 0.385491)"/><text font-family="Cairo,Cairo_MSFontService,sans-serif" font-weight="700" font-size="11" direction="rtl" writing-mode="rl-tb" transform="matrix(0.770039 0 0 0.770981 23.4862 298)" x="37.6604">الفروع</text><path d="M435.072 349.598C438.262 349.598 440.848 352.184 440.848 355.373L440.848 382.325C440.848 385.514 438.262 388.1 435.072 388.1L398.495 388.1C395.306 388.1 392.72 385.514 392.72 382.325L392.72 355.373C392.72 352.184 395.306 349.598 398.495 349.598Z" stroke="#666666" stroke-width="0.770039" fill="#F5F5F5" transform="matrix(1 0 0 1.00122 0.38502 0.385491)"/><path d="M404.756 359.223 410.77 354.411C414.779 351.202 418.788 351.202 422.798 354.411L434.834 364.036C438.843 367.245 438.843 370.453 434.834 373.662L422.798 383.287C418.788 386.496 414.779 386.496 410.77 383.287L398.734 373.662C394.725 370.453 394.725 367.245 398.734 364.036Z" stroke="#666666" stroke-width="0.770039" stroke-miterlimit="10" fill="none" transform="matrix(1 0 0 1.00122 0.38502 0.385491)"/><text fill="#333333" font-family="Cairo,Cairo_MSFontService,sans-serif" font-weight="700" font-size="11" direction="rtl" writing-mode="rl-tb" transform="matrix(0.770039 0 0 0.770981 406.966 372)" x="32.4659">يبحث</text><path d="M539.028 355.373 539.028 326.497" stroke="#000000" stroke-width="0.770039" stroke-miterlimit="10" fill="none" transform="matrix(1 0 0 1.00122 0.38502 0.385491)"/><path d="M539.028 280.294 539.028 249.493" stroke="#000000" stroke-width="0.770039" stroke-miterlimit="10" fill="none" transform="matrix(1 0 0 1.00122 0.38502 0.385491)"/><text font-family="Arial,Arial_MSFontService,sans-serif" font-weight="400" font-size="12" transform="matrix(0.770039 0 0 0.770981 227.547 409)">N</text><text font-family="Arial,Arial_MSFontService,sans-serif" font-weight="400" font-size="12" transform="matrix(0.770039 0 0 0.770981 481.66 409)">M</text><text font-family="Arial,Arial_MSFontService,sans-serif" font-weight="400" font-size="12" transform="matrix(0.770039 0 0 0.770981 477.809 357)">M</text><text font-family="Arial,Arial_MSFontService,sans-serif" font-weight="400" font-size="12" transform="matrix(0.770039 0 0 0.770981 558.664 272)">M</text><text font-family="Arial,Arial_MSFontService,sans-serif" font-weight="400" font-size="12" transform="matrix(0.770039 0 0 0.770981 559.434 342)">1</text><path d="M34.6518 311.096 34.6518 390.025" stroke="#000000" stroke-width="0.770039" stroke-miterlimit="10" fill="none" transform="matrix(1 0 0 1.00122 0.38502 0.385491)"/><path d="M61.6032 416.976 114.543 416.976" stroke="#000000" stroke-width="0.770039" stroke-miterlimit="10" fill="none" transform="matrix(1 0 0 1.00122 0.38502 0.385491)"/><path d="M304.166 210.991 405.041 210.991 404.756 349.598" stroke="#000000" stroke-width="0.770039" stroke-miterlimit="10" fill="none" transform="matrix(1 0 0 1.00122 0.38502 0.385491)"/><path d="M440.848 368.849 504.376 368.849" stroke="#000000" stroke-width="0.770039" stroke-miterlimit="10" fill="none" transform="matrix(1 0 0 1.00122 0.38502 0.385491)"/><path d="M352.293 415.051 539.028 415.051 539.028 382.325" stroke="#000000" stroke-width="0.770039" stroke-miterlimit="10" fill="none" transform="matrix(1 0 0 1.00122 0.38502 0.385491)"/><path d="M199.248 416.976 304.166 415.051" stroke="#000000" stroke-width="0.770039" stroke-miterlimit="10" fill="none" transform="matrix(1 0 0 1.00122 0.38502 0.385491)"/><path d="M156.896 326.497 156.896 401.576" stroke="#000000" stroke-width="0.770039" stroke-miterlimit="10" fill="none" transform="matrix(1 0 0 1.00122 0.38502 0.385491)"/><path d="M156.896 272.594 157.088 203.29 215.611 203.29" stroke="#000000" stroke-width="0.770039" stroke-miterlimit="10" fill="none" transform="matrix(1 0 0 1.00122 0.38502 0.385491)"/><path d="M427.372 83.9343 469.724 83.9343" stroke="#000000" stroke-width="0.770039" stroke-miterlimit="10" fill="none" transform="matrix(1 0 0 1.00122 0.38502 0.385491)"/><text font-family="Arial,Arial_MSFontService,sans-serif" font-weight="400" font-size="10" transform="matrix(0.770039 0 0 0.770981 235.632 539)">Text is not SVG </text><text font-family="Arial,Arial_MSFontService,sans-serif" font-weight="400" font-size="10" transform="matrix(0.770039 0 0 0.770981 294.155 539)">- </text><text font-family="Arial,Arial_MSFontService,sans-serif" font-weight="400" font-size="10" transform="matrix(0.770039 0 0 0.770981 298.775 539)">cannot display</text></g></svg>